# Blender 4.1.0
# www.blender.org
mtllib Circle.mtl
o Circle
v 0.000000 0.000000 -1.149942
v -0.224343 0.000000 -1.127847
v -0.440064 0.000000 -1.062408
v -0.638874 0.000000 -0.956142
v -0.813132 0.000000 -0.813132
v -0.956142 0.000000 -0.638874
v -1.062408 0.000000 -0.440064
v -1.127847 0.000000 -0.224343
v -1.149942 0.000000 0.000000
v -1.127847 0.000000 0.224343
v -1.062408 0.000000 0.440064
v -0.956142 0.000000 0.638874
v -0.813132 0.000000 0.813132
v -0.638874 0.000000 0.956142
v -0.440064 0.000000 1.062408
v -0.224343 0.000000 1.127847
v 0.000000 0.000000 1.149942
v 0.224343 0.000000 1.127847
v 0.440064 0.000000 1.062408
v 0.638874 0.000000 0.956142
v 0.813132 0.000000 0.813132
v 0.956142 0.000000 0.638874
v 1.062408 0.000000 0.440064
v 1.127847 0.000000 0.224343
v 1.149942 0.000000 0.000000
v 1.127847 0.000000 -0.224343
v 1.062408 0.000000 -0.440064
v 0.956142 0.000000 -0.638874
v 0.813132 0.000000 -0.813132
v 0.638874 0.000000 -0.956142
v 0.440064 0.000000 -1.062408
v 0.224343 0.000000 -1.127847
v 0.000000 0.000000 -0.681261
v -0.132907 0.000000 -0.668170
v -0.260707 0.000000 -0.629403
v -0.378488 0.000000 -0.566448
v -0.481724 0.000000 -0.481724
v -0.566448 0.000000 -0.378488
v -0.629403 0.000000 -0.260707
v -0.668170 0.000000 -0.132907
v -0.681261 0.000000 0.000000
v -0.668170 0.000000 0.132907
v -0.629403 0.000000 0.260707
v -0.566448 0.000000 0.378488
v -0.481724 0.000000 0.481724
v -0.378488 0.000000 0.566448
v -0.260707 0.000000 0.629403
v -0.132907 0.000000 0.668170
v 0.000000 0.000000 0.681261
v 0.132907 0.000000 0.668170
v 0.260707 0.000000 0.629403
v 0.378488 0.000000 0.566448
v 0.481724 0.000000 0.481724
v 0.566448 0.000000 0.378488
v 0.629403 0.000000 0.260707
v 0.668170 0.000000 0.132907
v 0.681261 0.000000 0.000000
v 0.668170 0.000000 -0.132907
v 0.629403 0.000000 -0.260707
v 0.566448 0.000000 -0.378488
v 0.481724 0.000000 -0.481724
v 0.378488 0.000000 -0.566448
v 0.260707 0.000000 -0.629403
v 0.132907 0.000000 -0.668170
v -0.112714 0.000000 -1.144401
v -0.333809 0.000000 -1.100422
v -0.542077 0.000000 -1.014155
v -0.729513 0.000000 -0.888914
v -0.888914 0.000000 -0.729513
v -1.014155 0.000000 -0.542077
v -1.100422 0.000000 -0.333809
v -1.144401 0.000000 -0.112714
v -1.144401 0.000000 0.112714
v -1.100422 0.000000 0.333809
v -1.014155 0.000000 0.542077
v -0.888914 0.000000 0.729513
v -0.729513 0.000000 0.888914
v -0.542077 0.000000 1.014155
v -0.333809 0.000000 1.100422
v -0.112714 0.000000 1.144401
v 0.112714 0.000000 1.144401
v 0.333809 0.000000 1.100422
v 0.542077 0.000000 1.014155
v 0.729513 0.000000 0.888914
v 0.888914 0.000000 0.729513
v 1.014155 0.000000 0.542077
v 1.100422 0.000000 0.333809
v 1.144401 0.000000 0.112714
v 1.144401 0.000000 -0.112714
v 1.100422 0.000000 -0.333809
v 1.014155 0.000000 -0.542077
v 0.888914 0.000000 -0.729513
v 0.729513 0.000000 -0.888914
v 0.542077 0.000000 -1.014155
v 0.333809 0.000000 -1.100422
v 0.112714 0.000000 -1.144401
v -0.066775 0.000000 -0.677978
v -0.197759 0.000000 -0.651923
v -0.321143 0.000000 -0.600816
v -0.432185 0.000000 -0.526619
v -0.526620 0.000000 -0.432185
v -0.600816 0.000000 -0.321143
v -0.651923 0.000000 -0.197759
v -0.677978 0.000000 -0.066775
v -0.677978 0.000000 0.066775
v -0.651923 0.000000 0.197759
v -0.600816 0.000000 0.321143
v -0.526619 0.000000 0.432185
v -0.432185 0.000000 0.526620
v -0.321143 0.000000 0.600816
v -0.197759 0.000000 0.651923
v -0.066775 0.000000 0.677978
v 0.066775 0.000000 0.677978
v 0.197759 0.000000 0.651923
v 0.321143 0.000000 0.600816
v 0.432185 0.000000 0.526619
v 0.526620 0.000000 0.432185
v 0.600816 0.000000 0.321143
v 0.651923 0.000000 0.197759
v 0.677978 0.000000 0.066775
v 0.677978 0.000000 -0.066775
v 0.651923 0.000000 -0.197759
v 0.600816 0.000000 -0.321143
v 0.526619 0.000000 -0.432185
v 0.432185 0.000000 -0.526620
v 0.321143 0.000000 -0.600816
v 0.197759 0.000000 -0.651923
v 0.066775 0.000000 -0.677978
v 0.000000 0.004000 -1.149942
v -0.224343 0.004000 -1.127847
v -0.440064 0.004000 -1.062408
v -0.638874 0.004000 -0.956142
v -0.813132 0.004000 -0.813132
v -0.956142 0.004000 -0.638874
v -1.062408 0.004000 -0.440064
v -1.127847 0.004000 -0.224343
v -1.149942 0.004000 0.000000
v -1.127847 0.004000 0.224343
v -1.062408 0.004000 0.440064
v -0.956142 0.004000 0.638874
v -0.813132 0.004000 0.813132
v -0.638874 0.004000 0.956142
v -0.440064 0.004000 1.062408
v -0.224343 0.004000 1.127847
v 0.000000 0.004000 1.149942
v 0.224343 0.004000 1.127847
v 0.440064 0.004000 1.062408
v 0.638874 0.004000 0.956142
v 0.813132 0.004000 0.813132
v 0.956142 0.004000 0.638874
v 1.062408 0.004000 0.440064
v 1.127847 0.004000 0.224343
v 1.149942 0.004000 0.000000
v 1.127847 0.004000 -0.224343
v 1.062408 0.004000 -0.440064
v 0.956142 0.004000 -0.638874
v 0.813132 0.004000 -0.813132
v 0.638874 0.004000 -0.956142
v 0.440064 0.004000 -1.062408
v 0.224343 0.004000 -1.127847
v 0.000000 0.004000 -0.681261
v -0.132907 0.004000 -0.668170
v -0.260707 0.004000 -0.629403
v -0.378488 0.004000 -0.566448
v -0.481724 0.004000 -0.481724
v -0.566448 0.004000 -0.378488
v -0.629403 0.004000 -0.260707
v -0.668170 0.004000 -0.132907
v -0.681261 0.004000 0.000000
v -0.668170 0.004000 0.132907
v -0.629403 0.004000 0.260707
v -0.566448 0.004000 0.378488
v -0.481724 0.004000 0.481724
v -0.378488 0.004000 0.566448
v -0.260707 0.004000 0.629403
v -0.132907 0.004000 0.668170
v 0.000000 0.004000 0.681261
v 0.132907 0.004000 0.668170
v 0.260707 0.004000 0.629403
v 0.378488 0.004000 0.566448
v 0.481724 0.004000 0.481724
v 0.566448 0.004000 0.378488
v 0.629403 0.004000 0.260707
v 0.668170 0.004000 0.132907
v 0.681261 0.004000 0.000000
v 0.668170 0.004000 -0.132907
v 0.629403 0.004000 -0.260707
v 0.566448 0.004000 -0.378488
v 0.481724 0.004000 -0.481724
v 0.378488 0.004000 -0.566448
v 0.260707 0.004000 -0.629403
v 0.132907 0.004000 -0.668170
v -0.112714 0.004000 -1.144401
v -0.333809 0.004000 -1.100422
v -0.542077 0.004000 -1.014155
v -0.729513 0.004000 -0.888914
v -0.888914 0.004000 -0.729513
v -1.014155 0.004000 -0.542077
v -1.100422 0.004000 -0.333809
v -1.144401 0.004000 -0.112714
v -1.144401 0.004000 0.112714
v -1.100422 0.004000 0.333809
v -1.014155 0.004000 0.542077
v -0.888914 0.004000 0.729513
v -0.729513 0.004000 0.888914
v -0.542077 0.004000 1.014155
v -0.333809 0.004000 1.100422
v -0.112714 0.004000 1.144401
v 0.112714 0.004000 1.144401
v 0.333809 0.004000 1.100422
v 0.542077 0.004000 1.014155
v 0.729513 0.004000 0.888914
v 0.888914 0.004000 0.729513
v 1.014155 0.004000 0.542077
v 1.100422 0.004000 0.333809
v 1.144401 0.004000 0.112714
v 1.144401 0.004000 -0.112714
v 1.100422 0.004000 -0.333809
v 1.014155 0.004000 -0.542077
v 0.888914 0.004000 -0.729513
v 0.729513 0.004000 -0.888914
v 0.542077 0.004000 -1.014155
v 0.333809 0.004000 -1.100422
v 0.112714 0.004000 -1.144401
v -0.066775 0.004000 -0.677978
v -0.197759 0.004000 -0.651923
v -0.321143 0.004000 -0.600816
v -0.432185 0.004000 -0.526619
v -0.526620 0.004000 -0.432185
v -0.600816 0.004000 -0.321143
v -0.651923 0.004000 -0.197759
v -0.677978 0.004000 -0.066775
v -0.677978 0.004000 0.066775
v -0.651923 0.004000 0.197759
v -0.600816 0.004000 0.321143
v -0.526619 0.004000 0.432185
v -0.432185 0.004000 0.526620
v -0.321143 0.004000 0.600816
v -0.197759 0.004000 0.651923
v -0.066775 0.004000 0.677978
v 0.066775 0.004000 0.677978
v 0.197759 0.004000 0.651923
v 0.321143 0.004000 0.600816
v 0.432185 0.004000 0.526619
v 0.526620 0.004000 0.432185
v 0.600816 0.004000 0.321143
v 0.651923 0.004000 0.197759
v 0.677978 0.004000 0.066775
v 0.677978 0.004000 -0.066775
v 0.651923 0.004000 -0.197759
v 0.600816 0.004000 -0.321143
v 0.526619 0.004000 -0.432185
v 0.432185 0.004000 -0.526620
v 0.321143 0.004000 -0.600816
v 0.197759 0.004000 -0.651923
v 0.066775 0.004000 -0.677978
vn -0.0000 -1.0000 -0.0000
vn -0.0000 1.0000 -0.0000
vn -0.1467 -0.0000 -0.9892
vn -0.0491 -0.0000 -0.9988
vn -0.3369 -0.0000 -0.9416
vn -0.2430 -0.0000 -0.9700
vn -0.5141 -0.0000 -0.8577
vn -0.4276 -0.0000 -0.9040
vn -0.6715 -0.0000 -0.7410
vn -0.5957 -0.0000 -0.8032
vn -0.8032 -0.0000 -0.5957
vn -0.7410 -0.0000 -0.6715
vn -0.9040 -0.0000 -0.4276
vn -0.8577 -0.0000 -0.5141
vn -0.9700 -0.0000 -0.2430
vn -0.9416 -0.0000 -0.3369
vn -0.9988 -0.0000 -0.0491
vn -0.9892 -0.0000 -0.1467
vn -0.9892 -0.0000 0.1467
vn -0.9988 -0.0000 0.0491
vn -0.9416 -0.0000 0.3369
vn -0.9700 -0.0000 0.2430
vn -0.8577 -0.0000 0.5141
vn -0.9040 -0.0000 0.4276
vn -0.7410 -0.0000 0.6715
vn -0.8032 -0.0000 0.5957
vn -0.5957 -0.0000 0.8032
vn -0.6715 -0.0000 0.7410
vn -0.4276 -0.0000 0.9040
vn -0.5141 -0.0000 0.8577
vn -0.2430 -0.0000 0.9700
vn -0.3369 -0.0000 0.9416
vn -0.0491 -0.0000 0.9988
vn -0.1467 -0.0000 0.9892
vn 0.1467 -0.0000 0.9892
vn 0.0491 -0.0000 0.9988
vn 0.3369 -0.0000 0.9416
vn 0.2430 -0.0000 0.9700
vn 0.5141 -0.0000 0.8577
vn 0.4276 -0.0000 0.9040
vn 0.6715 -0.0000 0.7410
vn 0.5957 -0.0000 0.8032
vn 0.8032 -0.0000 0.5957
vn 0.7410 -0.0000 0.6715
vn 0.9040 -0.0000 0.4276
vn 0.8577 -0.0000 0.5141
vn 0.9700 -0.0000 0.2430
vn 0.9416 -0.0000 0.3369
vn 0.9988 -0.0000 0.0491
vn 0.9892 -0.0000 0.1467
vn 0.9892 -0.0000 -0.1467
vn 0.9988 -0.0000 -0.0491
vn 0.9416 -0.0000 -0.3369
vn 0.9700 -0.0000 -0.2430
vn 0.8577 -0.0000 -0.5141
vn 0.9040 -0.0000 -0.4276
vn 0.7410 -0.0000 -0.6715
vn 0.8032 -0.0000 -0.5957
vn 0.5957 -0.0000 -0.8032
vn 0.6715 -0.0000 -0.7410
vn 0.4276 -0.0000 -0.9040
vn 0.5141 -0.0000 -0.8577
vn 0.2430 -0.0000 -0.9700
vn 0.3369 -0.0000 -0.9416
vn 0.0491 -0.0000 -0.9988
vn 0.1467 -0.0000 -0.9892
vt 0.997438 -0.319200
vt 0.002564 -0.319200
vt 0.002564 0.500000
vt 0.997437 0.500000
vt 0.002563 1.319200
vt 0.997436 1.319200
vt 0.997437 0.500000
vt 0.002564 0.500000
vt 0.997437 0.500000
vt 0.002564 -0.319200
vt 0.002563 1.319200
vt 0.002564 -0.319200
vt 0.002564 -0.319200
vt 0.002564 0.500000
s 0
usemtl Material
f 11/1/1 43/2/1 107/3/1 75/4/1
f 88/4/1 120/3/1 57/5/1 25/6/1
f 57/2/1 121/3/1 89/4/1 25/1/1
f 75/4/1 107/3/1 44/5/1 12/6/1
f 44/2/1 108/3/1 76/4/1 12/1/1
f 89/4/1 121/3/1 58/5/1 26/6/1
f 58/2/1 122/3/1 90/4/1 26/1/1
f 76/4/1 108/3/1 45/5/1 13/6/1
f 45/2/1 109/3/1 77/4/1 13/1/1
f 90/4/1 122/3/1 59/5/1 27/6/1
f 59/2/1 123/3/1 91/4/1 27/1/1
f 77/4/1 109/3/1 46/5/1 14/6/1
f 46/2/1 110/3/1 78/4/1 14/1/1
f 91/4/1 123/3/1 60/5/1 28/6/1
f 1/1/1 33/2/1 97/3/1 65/4/1
f 78/4/1 110/3/1 47/5/1 15/6/1
f 60/2/1 124/3/1 92/4/1 28/1/1
f 65/4/1 97/3/1 34/5/1 2/6/1
f 47/2/1 111/3/1 79/4/1 15/1/1
f 92/4/1 124/3/1 61/5/1 29/6/1
f 34/2/1 98/3/1 66/4/1 2/1/1
f 79/4/1 111/3/1 48/5/1 16/6/1
f 61/2/1 125/3/1 93/4/1 29/1/1
f 66/4/1 98/3/1 35/5/1 3/6/1
f 48/2/1 112/3/1 80/4/1 16/1/1
f 93/4/1 125/3/1 62/5/1 30/6/1
f 35/2/1 99/3/1 67/4/1 3/1/1
f 80/4/1 112/3/1 49/5/1 17/6/1
f 62/2/1 126/3/1 94/4/1 30/1/1
f 67/4/1 99/3/1 36/5/1 4/6/1
f 49/2/1 113/3/1 81/4/1 17/1/1
f 94/4/1 126/3/1 63/5/1 31/6/1
f 36/2/1 100/3/1 68/4/1 4/1/1
f 81/4/1 113/3/1 50/5/1 18/6/1
f 63/2/1 127/3/1 95/4/1 31/1/1
f 68/4/1 100/3/1 37/5/1 5/6/1
f 50/2/1 114/3/1 82/4/1 18/1/1
f 95/4/1 127/3/1 64/5/1 32/6/1
f 37/2/1 101/3/1 69/4/1 5/1/1
f 82/4/1 114/3/1 51/5/1 19/6/1
f 64/2/1 128/3/1 96/4/1 32/1/1
f 69/4/1 101/3/1 38/5/1 6/6/1
f 51/2/1 115/3/1 83/4/1 19/1/1
f 96/4/1 128/3/1 33/5/1 1/6/1
f 38/2/1 102/3/1 70/4/1 6/1/1
f 83/4/1 115/3/1 52/5/1 20/6/1
f 52/2/1 116/3/1 84/4/1 20/1/1
f 70/4/1 102/3/1 39/5/1 7/6/1
f 39/2/1 103/3/1 71/4/1 7/1/1
f 84/4/1 116/3/1 53/5/1 21/6/1
f 53/2/1 117/3/1 85/4/1 21/1/1
f 71/4/1 103/3/1 40/5/1 8/6/1
f 40/2/1 104/3/1 72/4/1 8/1/1
f 85/4/1 117/3/1 54/5/1 22/6/1
f 54/2/1 118/3/1 86/4/1 22/1/1
f 72/4/1 104/3/1 41/5/1 9/6/1
f 41/2/1 105/3/1 73/4/1 9/1/1
f 86/4/1 118/3/1 55/5/1 23/6/1
f 55/2/1 119/3/1 87/4/1 23/1/1
f 73/4/1 105/3/1 42/5/1 10/6/1
f 42/2/1 106/3/1 74/4/1 10/1/1
f 87/4/1 119/3/1 56/5/1 24/6/1
f 216/7/2 248/8/2 184/2/2 152/1/2
f 74/4/1 106/3/1 43/5/1 11/6/1
f 203/9/2 235/3/2 171/10/2 139/1/2
f 185/5/2 248/8/2 216/7/2 153/6/2
f 217/7/2 249/8/2 185/2/2 153/1/2
f 172/5/2 235/3/2 203/9/2 140/6/2
f 204/4/2 236/3/2 172/2/2 140/1/2
f 186/11/2 249/8/2 217/7/2 154/6/2
f 218/4/2 250/3/2 186/12/2 154/1/2
f 173/5/2 236/3/2 204/4/2 141/6/2
f 205/4/2 237/3/2 173/13/2 141/1/2
f 187/11/2 250/3/2 218/4/2 155/6/2
f 219/9/2 251/3/2 187/10/2 155/1/2
f 174/5/2 237/3/2 205/4/2 142/6/2
f 206/4/2 238/3/2 174/2/2 142/1/2
f 188/5/2 251/3/2 219/9/2 156/6/2
f 193/7/2 225/3/2 161/2/2 129/1/2
f 175/11/2 238/3/2 206/4/2 143/6/2
f 220/4/2 252/3/2 188/2/2 156/1/2
f 162/11/2 225/3/2 193/7/2 130/6/2
f 207/4/2 239/8/2 175/13/2 143/1/2
f 189/5/2 252/3/2 220/4/2 157/6/2
f 194/4/2 226/3/2 162/12/2 130/1/2
f 176/5/2 239/8/2 207/4/2 144/6/2
f 221/4/2 253/3/2 189/13/2 157/1/2
f 163/11/2 226/3/2 194/4/2 131/6/2
f 208/9/2 240/14/2 176/2/2 144/1/2
f 190/5/2 253/3/2 221/4/2 158/6/2
f 195/9/2 227/3/2 163/10/2 131/1/2
f 177/5/2 240/14/2 208/9/2 145/6/2
f 222/4/2 254/3/2 190/2/2 158/1/2
f 164/5/2 227/3/2 195/9/2 132/6/2
f 209/4/2 241/3/2 177/2/2 145/1/2
f 191/11/2 254/3/2 222/4/2 159/6/2
f 196/4/2 228/3/2 164/2/2 132/1/2
f 178/5/2 241/3/2 209/4/2 146/6/2
f 223/4/2 255/14/2 191/13/2 159/1/2
f 165/5/2 228/3/2 196/4/2 133/6/2
f 210/4/2 242/3/2 178/12/2 146/1/2
f 192/5/2 255/14/2 223/4/2 160/6/2
f 197/4/2 229/3/2 165/13/2 133/1/2
f 179/11/2 242/3/2 210/4/2 147/6/2
f 224/4/2 256/14/2 192/13/2 160/1/2
f 166/5/2 229/3/2 197/4/2 134/6/2
f 211/4/2 243/3/2 179/12/2 147/1/2
f 129/6/2 161/5/2 256/14/2 224/4/2
f 198/4/2 230/3/2 166/2/2 134/1/2
f 180/5/2 243/3/2 211/4/2 148/6/2
f 212/4/2 244/3/2 180/2/2 148/1/2
f 167/11/2 230/3/2 198/4/2 135/6/2
f 199/4/2 231/8/2 167/13/2 135/1/2
f 181/5/2 244/3/2 212/4/2 149/6/2
f 213/4/2 245/3/2 181/13/2 149/1/2
f 168/11/2 231/8/2 199/4/2 136/6/2
f 200/9/2 232/8/2 168/2/2 136/1/2
f 182/5/2 245/3/2 213/4/2 150/6/2
f 214/4/2 246/3/2 182/2/2 150/1/2
f 169/5/2 232/8/2 200/9/2 137/6/2
f 201/9/2 233/8/2 169/2/2 137/1/2
f 183/11/2 246/3/2 214/4/2 151/6/2
f 215/4/2 247/8/2 183/13/2 151/1/2
f 170/11/2 233/8/2 201/9/2 138/6/2
f 202/4/2 234/3/2 170/12/2 138/1/2
f 152/6/2 184/11/2 247/8/2 215/4/2
f 139/6/2 171/11/2 234/3/2 202/4/2
f 65/4/3 2/6/3 130/6/3 193/7/3
f 1/1/4 65/4/4 193/7/4 129/1/4
f 66/4/5 3/6/5 131/6/5 194/4/5
f 2/1/6 66/4/6 194/4/6 130/1/6
f 67/4/7 4/6/7 132/6/7 195/9/7
f 3/1/8 67/4/8 195/9/8 131/1/8
f 68/4/9 5/6/9 133/6/9 196/4/9
f 4/1/10 68/4/10 196/4/10 132/1/10
f 69/4/11 6/6/11 134/6/11 197/4/11
f 5/1/12 69/4/12 197/4/12 133/1/12
f 70/4/13 7/6/13 135/6/13 198/4/13
f 6/1/14 70/4/14 198/4/14 134/1/14
f 71/4/15 8/6/15 136/6/15 199/4/15
f 7/1/16 71/4/16 199/4/16 135/1/16
f 72/4/17 9/6/17 137/6/17 200/9/17
f 8/1/18 72/4/18 200/9/18 136/1/18
f 73/4/19 10/6/19 138/6/19 201/9/19
f 9/1/20 73/4/20 201/9/20 137/1/20
f 74/4/21 11/6/21 139/6/21 202/4/21
f 10/1/22 74/4/22 202/4/22 138/1/22
f 75/4/23 12/6/23 140/6/23 203/9/23
f 11/1/24 75/4/24 203/9/24 139/1/24
f 76/4/25 13/6/25 141/6/25 204/4/25
f 12/1/26 76/4/26 204/4/26 140/1/26
f 77/4/27 14/6/27 142/6/27 205/4/27
f 13/1/28 77/4/28 205/4/28 141/1/28
f 78/4/29 15/6/29 143/6/29 206/4/29
f 14/1/30 78/4/30 206/4/30 142/1/30
f 79/4/31 16/6/31 144/6/31 207/4/31
f 15/1/32 79/4/32 207/4/32 143/1/32
f 80/4/33 17/6/33 145/6/33 208/9/33
f 16/1/34 80/4/34 208/9/34 144/1/34
f 81/4/35 18/6/35 146/6/35 209/4/35
f 17/1/36 81/4/36 209/4/36 145/1/36
f 82/4/37 19/6/37 147/6/37 210/4/37
f 18/1/38 82/4/38 210/4/38 146/1/38
f 83/4/39 20/6/39 148/6/39 211/4/39
f 19/1/40 83/4/40 211/4/40 147/1/40
f 84/4/41 21/6/41 149/6/41 212/4/41
f 20/1/42 84/4/42 212/4/42 148/1/42
f 85/4/43 22/6/43 150/6/43 213/4/43
f 21/1/44 85/4/44 213/4/44 149/1/44
f 86/4/45 23/6/45 151/6/45 214/4/45
f 22/1/46 86/4/46 214/4/46 150/1/46
f 87/4/47 24/6/47 152/6/47 215/4/47
f 23/1/48 87/4/48 215/4/48 151/1/48
f 88/4/49 25/6/49 153/6/49 216/7/49
f 24/1/50 88/4/50 216/7/50 152/1/50
f 89/4/51 26/6/51 154/6/51 217/7/51
f 25/1/52 89/4/52 217/7/52 153/1/52
f 90/4/53 27/6/53 155/6/53 218/4/53
f 26/1/54 90/4/54 218/4/54 154/1/54
f 91/4/55 28/6/55 156/6/55 219/9/55
f 27/1/56 91/4/56 219/9/56 155/1/56
f 92/4/57 29/6/57 157/6/57 220/4/57
f 28/1/58 92/4/58 220/4/58 156/1/58
f 93/4/59 30/6/59 158/6/59 221/4/59
f 29/1/60 93/4/60 221/4/60 157/1/60
f 94/4/61 31/6/61 159/6/61 222/4/61
f 30/1/62 94/4/62 222/4/62 158/1/62
f 95/4/63 32/6/63 160/6/63 223/4/63
f 31/1/64 95/4/64 223/4/64 159/1/64
f 96/4/65 1/6/65 129/6/65 224/4/65
f 32/1/66 96/4/66 224/4/66 160/1/66
f 34/5/35 97/3/35 225/3/35 162/11/35
f 97/3/36 33/2/36 161/2/36 225/3/36
f 35/5/37 98/3/37 226/3/37 163/11/37
f 98/3/38 34/2/38 162/12/38 226/3/38
f 36/5/39 99/3/39 227/3/39 164/5/39
f 99/3/40 35/2/40 163/10/40 227/3/40
f 37/5/41 100/3/41 228/3/41 165/5/41
f 100/3/42 36/2/42 164/2/42 228/3/42
f 38/5/43 101/3/43 229/3/43 166/5/43
f 101/3/44 37/2/44 165/13/44 229/3/44
f 39/5/45 102/3/45 230/3/45 167/11/45
f 102/3/46 38/2/46 166/2/46 230/3/46
f 40/5/47 103/3/47 231/8/47 168/11/47
f 103/3/48 39/2/48 167/13/48 231/8/48
f 41/5/49 104/3/49 232/8/49 169/5/49
f 104/3/50 40/2/50 168/2/50 232/8/50
f 42/5/51 105/3/51 233/8/51 170/11/51
f 105/3/52 41/2/52 169/2/52 233/8/52
f 43/5/53 106/3/53 234/3/53 171/11/53
f 106/3/54 42/2/54 170/12/54 234/3/54
f 44/5/55 107/3/55 235/3/55 172/5/55
f 107/3/56 43/2/56 171/10/56 235/3/56
f 45/5/57 108/3/57 236/3/57 173/5/57
f 108/3/58 44/2/58 172/2/58 236/3/58
f 46/5/59 109/3/59 237/3/59 174/5/59
f 109/3/60 45/2/60 173/13/60 237/3/60
f 47/5/61 110/3/61 238/3/61 175/11/61
f 110/3/62 46/2/62 174/2/62 238/3/62
f 48/5/63 111/3/63 239/8/63 176/5/63
f 111/3/64 47/2/64 175/13/64 239/8/64
f 49/5/65 112/3/65 240/14/65 177/5/65
f 112/3/66 48/2/66 176/2/66 240/14/66
f 50/5/3 113/3/3 241/3/3 178/5/3
f 113/3/4 49/2/4 177/2/4 241/3/4
f 51/5/5 114/3/5 242/3/5 179/11/5
f 114/3/6 50/2/6 178/12/6 242/3/6
f 52/5/7 115/3/7 243/3/7 180/5/7
f 115/3/8 51/2/8 179/12/8 243/3/8
f 53/5/9 116/3/9 244/3/9 181/5/9
f 116/3/10 52/2/10 180/2/10 244/3/10
f 54/5/11 117/3/11 245/3/11 182/5/11
f 117/3/12 53/2/12 181/13/12 245/3/12
f 55/5/13 118/3/13 246/3/13 183/11/13
f 118/3/14 54/2/14 182/2/14 246/3/14
f 56/5/15 119/3/15 247/8/15 184/11/15
f 119/3/16 55/2/16 183/13/16 247/8/16
f 57/5/17 120/3/17 248/8/17 185/5/17
f 120/3/18 56/2/18 184/2/18 248/8/18
f 58/5/19 121/3/19 249/8/19 186/11/19
f 121/3/20 57/2/20 185/2/20 249/8/20
f 59/5/21 122/3/21 250/3/21 187/11/21
f 122/3/22 58/2/22 186/12/22 250/3/22
f 60/5/23 123/3/23 251/3/23 188/5/23
f 123/3/24 59/2/24 187/10/24 251/3/24
f 61/5/25 124/3/25 252/3/25 189/5/25
f 124/3/26 60/2/26 188/2/26 252/3/26
f 62/5/27 125/3/27 253/3/27 190/5/27
f 125/3/28 61/2/28 189/13/28 253/3/28
f 63/5/29 126/3/29 254/3/29 191/11/29
f 126/3/30 62/2/30 190/2/30 254/3/30
f 64/5/31 127/3/31 255/14/31 192/5/31
f 127/3/32 63/2/32 191/13/32 255/14/32
f 33/5/33 128/3/33 256/14/33 161/5/33
f 128/3/34 64/2/34 192/13/34 256/14/34
f 24/1/1 56/2/1 120/3/1 88/4/1
